<svg id="layer-visual" viewBox="0 0 960 600" width="960" height="600" xmlns="http://www.w3.org/2000/svg" xmlns:xlink="http://www.w3.org/1999/xlink" version="1.1"><rect x="0" y="0" width="960" height="600" fill="#202731"></rect><path d="M0 391L22.8 375.7C45.7 360.3 91.3 329.7 137 321.8C182.7 314 228.3 329 274 349.3C319.7 369.7 365.3 395.3 411.2 401.3C457 407.3 503 393.7 548.8 383.5C594.7 373.3 640.3 366.7 686 349.3C731.7 332 777.3 304 823 306C868.7 308 914.3 340 937.2 356L960 372L960 0L937.2 0C914.3 0 868.7 0 823 0C777.3 0 731.7 0 686 0C640.3 0 594.7 0 548.8 0C503 0 457 0 411.2 0C365.3 0 319.7 0 274 0C228.3 0 182.7 0 137 0C91.3 0 45.7 0 22.8 0L0 0Z" fill="#fa7268"></path><path d="M0 324L22.8 311.5C45.7 299 91.3 274 137 271.5C182.7 269 228.3 289 274 306.8C319.7 324.7 365.3 340.3 411.2 342.2C457 344 503 332 548.8 320.3C594.7 308.7 640.3 297.3 686 287.3C731.7 277.3 777.3 268.7 823 264.2C868.7 259.7 914.3 259.3 937.2 259.2L960 259L960 0L937.2 0C914.3 0 868.7 0 823 0C777.3 0 731.7 0 686 0C640.3 0 594.7 0 548.8 0C503 0 457 0 411.2 0C365.3 0 319.7 0 274 0C228.3 0 182.7 0 137 0C91.3 0 45.7 0 22.8 0L0 0Z" fill="#ef5f67"></path><path d="M0 209L22.8 219.5C45.7 230 91.3 251 137 244.8C182.7 238.7 228.3 205.3 274 187.3C319.7 169.3 365.3 166.7 411.2 182.3C457 198 503 232 548.8 235.8C594.7 239.7 640.3 213.3 686 204.5C731.7 195.7 777.3 204.3 823 218.7C868.7 233 914.3 253 937.2 263L960 273L960 0L937.2 0C914.3 0 868.7 0 823 0C777.3 0 731.7 0 686 0C640.3 0 594.7 0 548.8 0C503 0 457 0 411.2 0C365.3 0 319.7 0 274 0C228.3 0 182.7 0 137 0C91.3 0 45.7 0 22.8 0L0 0Z" fill="#e34c67"></path><path d="M0 116L22.8 115.2C45.7 114.3 91.3 112.7 137 120.3C182.7 128 228.3 145 274 149C319.7 153 365.3 144 411.2 145C457 146 503 157 548.8 156.8C594.7 156.7 640.3 145.3 686 148.2C731.7 151 777.3 168 823 169C868.7 170 914.3 155 937.2 147.5L960 140L960 0L937.2 0C914.3 0 868.7 0 823 0C777.3 0 731.7 0 686 0C640.3 0 594.7 0 548.8 0C503 0 457 0 411.2 0C365.3 0 319.7 0 274 0C228.3 0 182.7 0 137 0C91.3 0 45.7 0 22.8 0L0 0Z" fill="#d53867"></path><path d="M0 73L22.8 80C45.7 87 91.3 101 137 108.7C182.7 116.3 228.3 117.7 274 106.8C319.7 96 365.3 73 411.2 73.3C457 73.7 503 97.3 548.8 109.5C594.7 121.7 640.3 122.3 686 112.8C731.7 103.3 777.3 83.7 823 82.7C868.7 81.7 914.3 99.3 937.2 108.2L960 117L960 0L937.2 0C914.3 0 868.7 0 823 0C777.3 0 731.7 0 686 0C640.3 0 594.7 0 548.8 0C503 0 457 0 411.2 0C365.3 0 319.7 0 274 0C228.3 0 182.7 0 137 0C91.3 0 45.7 0 22.8 0L0 0Z" fill="#c62368"></path></svg>