<svg id="layer-visual" viewBox="0 0 960 100" width="960" height="100" xmlns="http://www.w3.org/2000/svg" xmlns:xlink="http://www.w3.org/1999/xlink" version="1.1"><rect x="0" y="0" width="960" height="100" fill="#202731"></rect><path d="M0 44L20 48.8C40 53.7 80 63.3 120 68.2C160 73 200 73 240 73C280 73 320 73 360 70.7C400 68.3 440 63.7 480 58.7C520 53.7 560 48.3 600 45.5C640 42.7 680 42.3 720 42.7C760 43 800 44 840 47.2C880 50.3 920 55.7 940 58.3L960 61L960 0L940 0C920 0 880 0 840 0C800 0 760 0 720 0C680 0 640 0 600 0C560 0 520 0 480 0C440 0 400 0 360 0C320 0 280 0 240 0C200 0 160 0 120 0C80 0 40 0 20 0L0 0Z" fill="#ff0066" stroke-linecap="round" stroke-linejoin="miter"></path></svg>