<svg id="layer-visual" viewBox="0 0 1996 100" width="1996" height="100" xmlns="http://www.w3.org/2000/svg" xmlns:xlink="http://www.w3.org/1999/xlink" version="1.1"><rect x="0" y="0" width="1996" height="100" fill="#202731"></rect><path d="M0 33L17.5 38.3C35 43.7 70 54.3 105 60.8C140 67.3 175 69.7 210 63.3C245 57 280 42 315 41.7C350 41.3 385 55.7 420 58.2C455 60.7 490 51.3 525 49.5C560 47.7 595 53.3 630 57.5C665 61.7 700 64.3 735 66.2C770 68 805 69 840 70C875 71 910 72 945.2 71.8C980.3 71.7 1015.7 70.3 1050.8 65.8C1086 61.3 1121 53.7 1156 51.8C1191 50 1226 54 1261 53C1296 52 1331 46 1366 46.7C1401 47.3 1436 54.7 1471 53C1506 51.3 1541 40.7 1576 38.7C1611 36.7 1646 43.3 1681 48.7C1716 54 1751 58 1786 57.3C1821 56.7 1856 51.3 1891 45.7C1926 40 1961 34 1978.5 31L1996 28L1996 0L1978.5 0C1961 0 1926 0 1891 0C1856 0 1821 0 1786 0C1751 0 1716 0 1681 0C1646 0 1611 0 1576 0C1541 0 1506 0 1471 0C1436 0 1401 0 1366 0C1331 0 1296 0 1261 0C1226 0 1191 0 1156 0C1121 0 1086 0 1050.8 0C1015.7 0 980.3 0 945.2 0C910 0 875 0 840 0C805 0 770 0 735 0C700 0 665 0 630 0C595 0 560 0 525 0C490 0 455 0 420 0C385 0 350 0 315 0C280 0 245 0 210 0C175 0 140 0 105 0C70 0 35 0 17.5 0L0 0Z" fill="#ff0066" stroke-linecap="round" stroke-linejoin="miter"></path></svg>