<svg id="layer-visual" viewBox="0 0 1996 100" width="1996" height="100" xmlns="http://www.w3.org/2000/svg" xmlns:xlink="http://www.w3.org/1999/xlink" version="1.1"><rect x="0" y="0" width="1996" height="100" fill="#202731"></rect><path d="M0 52L30.2 50C60.3 48 120.7 44 181.2 42.5C241.7 41 302.3 42 362.8 41.2C423.3 40.3 483.7 37.7 544.2 40C604.7 42.3 665.3 49.7 725.8 55.7C786.3 61.7 846.7 66.3 907.2 66.3C967.7 66.3 1028.3 61.7 1088.8 57.3C1149.3 53 1209.7 49 1270.2 51C1330.7 53 1391.3 61 1451.8 63.2C1512.3 65.3 1572.7 61.7 1633.2 56.7C1693.7 51.7 1754.3 45.3 1814.8 45.8C1875.3 46.3 1935.7 53.7 1965.8 57.3L1996 61L1996 0L1965.8 0C1935.7 0 1875.3 0 1814.8 0C1754.3 0 1693.7 0 1633.2 0C1572.7 0 1512.3 0 1451.8 0C1391.3 0 1330.7 0 1270.2 0C1209.7 0 1149.3 0 1088.8 0C1028.3 0 967.7 0 907.2 0C846.7 0 786.3 0 725.8 0C665.3 0 604.7 0 544.2 0C483.7 0 423.3 0 362.8 0C302.3 0 241.7 0 181.2 0C120.7 0 60.3 0 30.2 0L0 0Z" fill="#ff0066" stroke-linecap="round" stroke-linejoin="miter"></path></svg>