<svg id="visual" viewBox="0 0 960 540" width="960" height="540" xmlns="http://www.w3.org/2000/svg" xmlns:xlink="http://www.w3.org/1999/xlink" version="1.1"><rect x="0" y="0" width="960" height="540" fill="#202731"></rect><path d="M0 509L22.8 504C45.7 499 91.3 489 137 484.2C182.7 479.3 228.3 479.7 274 482.5C319.7 485.3 365.3 490.7 411.2 495.2C457 499.7 503 503.3 548.8 503C594.7 502.7 640.3 498.3 686 492.5C731.7 486.7 777.3 479.3 823 481.3C868.7 483.3 914.3 494.7 937.2 500.3L960 506L960 541L937.2 541C914.3 541 868.7 541 823 541C777.3 541 731.7 541 686 541C640.3 541 594.7 541 548.8 541C503 541 457 541 411.2 541C365.3 541 319.7 541 274 541C228.3 541 182.7 541 137 541C91.3 541 45.7 541 22.8 541L0 541Z" fill="#b3005c" stroke-linecap="round" stroke-linejoin="miter"></path></svg>